<?xml version="1.0" standalone="no"?>
<!DOCTYPE svg PUBLIC "-//W3C//DTD SVG 20010904//EN"
 "http://www.w3.org/TR/2001/REC-SVG-20010904/DTD/svg10.dtd">
<svg version="1.0" xmlns="http://www.w3.org/2000/svg"
 width="390.000000pt" height="390.000000pt" viewBox="0 0 390.000000 390.000000"
 preserveAspectRatio="xMidYMid meet">
<metadata>
Created by potrace 1.14, written by Peter Selinger 2001-2017
</metadata>
<g transform="translate(0.000000,390.000000) scale(0.100000,-0.100000)"
fill="#000000" stroke="none">
<path d="M945 3710 c-86 -24 -139 -56 -209 -125 -68 -66 -118 -154 -136 -238
-12 -60 -10 -2051 3 -2102 4 -16 12 -52 18 -80 33 -157 104 -320 208 -475 74
-112 253 -291 362 -362 106 -70 344 -186 356 -174 3 3 15 0 27 -6 11 -7 28
-13 36 -14 8 -2 34 -7 57 -13 24 -6 62 -14 85 -17 59 -8 368 -12 368 -5 0 3
21 7 48 8 26 2 99 19 162 39 63 19 121 36 128 36 6 1 12 5 12 10 0 4 5 8 11 8
16 0 166 77 228 117 197 129 375 329 479 539 67 133 110 269 129 404 10 67 11
2065 1 2100 -24 90 -80 184 -141 236 -73 62 -87 74 -87 69 0 -3 -11 2 -24 10
-13 9 -54 25 -92 35 -66 19 -103 20 -1019 19 -871 -1 -955 -3 -1010 -19z
m1255 -2070 l1 -25 14 25 13 25 419 1 c230 0 424 -2 431 -4 9 -3 11 -33 8
-126 -3 -66 -8 -134 -11 -151 -3 -16 -10 -56 -16 -88 -33 -191 -155 -421 -295
-561 -54 -53 -108 -100 -135 -118 -14 -9 -33 -23 -40 -30 -24 -22 -106 -66
-201 -108 -60 -26 -216 -67 -288 -76 -178 -21 -380 2 -530 61 -46 18 -74 27
-79 25 -2 -1 -7 2 -10 7 -3 4 -22 16 -41 25 -313 155 -554 493 -597 838 -8 61
-15 280 -10 293 4 10 149 12 686 12 l681 0 0 -25z"/>
</g>
</svg>
